<svg width="256" height="256" viewBox="0 0 256 256" fill="none" xmlns="http://www.w3.org/2000/svg">
<rect width="256" height="256" rx="32" fill="#170E0F"/>
<path d="M58.1932 46.6344V240H114.805V202.568H97.2529V84.0666H114.805C130.212 84.0666 141.17 87.864 147.68 95.459C154.157 102.771 158.42 114.403 158.729 131.331C158.741 131.986 158.747 132.649 158.747 133.32V152.356L158.729 131.331L158.747 62.0883C146.352 51.3327 132.964 46.6344 116.433 46.6344H58.1932Z" fill="#8A1212"/>
<path d="M197.807 152.441V105.895V16H158.747V62.0883L158.729 131.331C158.741 131.986 158.747 132.649 158.747 133.32V152.356C157.994 167.053 153.003 184.076 147.14 190.696C140.34 196.362 134.196 201.159 121.126 202.307C119.181 202.478 117.082 202.568 114.805 202.568V240C141.279 240 163.087 232.622 176.975 217.866C190.863 203.11 197.807 181.302 197.807 152.441Z" fill="#F31717"/>
</svg>
