<svg width="64" height="64" viewBox="0 0 64 64" fill="none" xmlns="http://www.w3.org/2000/svg">
<rect width="64" height="64" fill="white"/>
<path d="M30.8936 22.016C29.8056 22.016 28.6696 22.16 27.4856 22.448C26.3016 22.736 24.9256 23.2 23.3576 23.84L21.5816 19.088C23.4056 18.256 25.1176 17.68 26.7176 17.36C28.3496 17.04 29.8696 16.88 31.2776 16.88C33.7416 16.88 35.7096 17.248 37.1816 17.984C38.6856 18.72 39.7736 19.728 40.4456 21.008C41.1176 22.256 41.4536 23.696 41.4536 25.328V26.192C41.4536 27.888 41.1976 29.36 40.6856 30.608C40.1736 31.824 39.2776 33.008 37.9976 34.16L36.2696 35.744C35.2136 36.704 34.5896 37.488 34.3976 38.096C34.2056 38.672 34.1096 39.312 34.1096 40.016V40.448H28.3496V39.584C28.3496 38.368 28.5416 37.248 28.9256 36.224C29.3096 35.2 30.2216 34.032 31.6616 32.72L33.4376 31.088C34.3656 30.224 34.9896 29.472 35.3096 28.832C35.6296 28.192 35.7896 27.472 35.7896 26.672V25.808C35.7896 24.688 35.4216 23.776 34.6856 23.072C33.9496 22.368 32.6856 22.016 30.8936 22.016ZM34.1576 50H28.3496V44.288H34.1576V50Z" fill="#414141"/>
</svg>
