<svg width="256" height="256" viewBox="0 0 256 256" fill="none" xmlns="http://www.w3.org/2000/svg">
<path d="M48.2208 35.0108V256H112.92V213.22H92.8604V77.7904H112.92C130.528 77.7904 143.052 82.1303 150.492 90.8102C157.893 99.1668 162.766 112.46 163.119 131.807C163.133 132.556 163.14 133.313 163.14 134.08V155.835L163.119 131.807L163.14 52.6723C148.973 40.3803 133.674 35.0108 114.78 35.0108H48.2208Z" fill="#8A1212"/>
<path d="M207.779 155.933V102.737V0H163.14V52.6723L163.119 131.807C163.133 132.556 163.14 133.313 163.14 134.08V155.835C162.279 172.632 156.575 192.087 149.874 199.652C142.103 206.128 135.081 211.611 120.144 212.922C117.921 213.118 115.522 213.22 112.92 213.22V256C143.176 256 168.1 247.568 183.971 230.704C199.843 213.84 207.779 188.917 207.779 155.933Z" fill="#F31717"/>
</svg>
